<svg id="svg" fill="#D5621D" stroke="#D5621D" width="50" height="50" version="1.1" viewBox="144 144 512 512" xmlns="http://www.w3.org/2000/svg">
    <g id="IconSvg_bgCarrier" stroke-width="0"></g>
    <g id="IconSvg_tracerCarrier" stroke-linecap="round" stroke-linejoin="round" stroke="#CCCCCC" stroke-width="0">
      <g xmlns="http://www.w3.org/2000/svg">
  <path d="m541.7 384.25h-283.39c-5.625 0-10.82 3-13.633 7.8711s-2.8125 10.875 0 15.746 8.0078 7.8711 13.633 7.8711h283.39c5.625 0 10.82-3 13.633-7.8711s2.8125-10.875 0-15.746-8.0078-7.8711-13.633-7.8711z"></path>
  <path d="m541.7 478.72h-283.39c-5.625 0-10.82 3-13.633 7.8711s-2.8125 10.875 0 15.746c2.8125 4.8711 8.0078 7.8711 13.633 7.8711h283.39c5.625 0 10.82-3 13.633-7.8711 2.8125-4.8711 2.8125-10.875 0-15.746s-8.0078-7.8711-13.633-7.8711z"></path>
  <path d="m258.3 321.28h283.39c5.625 0 10.82-3 13.633-7.8711s2.8125-10.871 0-15.742c-2.8125-4.875-8.0078-7.875-13.633-7.875h-283.39c-5.625 0-10.82 3-13.633 7.875-2.8125 4.8711-2.8125 10.871 0 15.742s8.0078 7.8711 13.633 7.8711z"></path>
 </g>

      </g>
     <g id="IconSvg_iconCarrier">
      <g xmlns="http://www.w3.org/2000/svg">
  <path d="m541.7 384.25h-283.39c-5.625 0-10.82 3-13.633 7.8711s-2.8125 10.875 0 15.746 8.0078 7.8711 13.633 7.8711h283.39c5.625 0 10.82-3 13.633-7.8711s2.8125-10.875 0-15.746-8.0078-7.8711-13.633-7.8711z"></path>
  <path d="m541.7 478.72h-283.39c-5.625 0-10.82 3-13.633 7.8711s-2.8125 10.875 0 15.746c2.8125 4.8711 8.0078 7.8711 13.633 7.8711h283.39c5.625 0 10.82-3 13.633-7.8711 2.8125-4.8711 2.8125-10.875 0-15.746s-8.0078-7.8711-13.633-7.8711z"></path>
  <path d="m258.3 321.28h283.39c5.625 0 10.82-3 13.633-7.8711s2.8125-10.871 0-15.742c-2.8125-4.875-8.0078-7.875-13.633-7.875h-283.39c-5.625 0-10.82 3-13.633 7.875-2.8125 4.8711-2.8125 10.871 0 15.742s8.0078 7.8711 13.633 7.8711z"></path>
 </g>

      </g>
      </svg>